<?xml version="1.0" encoding="UTF-8"?>
<!DOCTYPE svg PUBLIC "-//W3C//DTD SVG 1.1//EN" "http://www.w3.org/Graphics/SVG/1.1/DTD/svg11.dtd">
<svg version="1.1" xmlns="http://www.w3.org/2000/svg" xmlns:xlink="http://www.w3.org/1999/xlink" x="0" y="0" width="32" height="32" viewBox="0, 0, 32, 32">
  <defs>
    <linearGradient id="Gradient_1" gradientUnits="userSpaceOnUse" x1="15.75" y1="43.625" x2="15.75" y2="-7.375">
      <stop offset="0" stop-color="#0093FF"/>
      <stop offset="1" stop-color="#000542" stop-opacity="0.959"/>
    </linearGradient>
  </defs>
  <g id="Livello_2">
    <path d="M0,0 L32,0 L32,32 L0,32 L0,0 z" fill="url(#Gradient_1)"/>
  </g>
  <g id="Dinosauro">
    <path d="M11.414,17.13 C9.591,17.487 8.399,15.991 9.169,15.457 C10.405,14.715 10.405,14.715 11.095,14.243 C11.733,13.752 13.103,12.304 13.896,12.508 C14.037,12.585 13.94,12.754 13.906,12.879 C13.157,15.134 12.728,16.978 11.414,17.13" fill="#F1F2F1"/>
    <path d="M8.901,25.515 L9.143,25.716" fill="#F1F2F1"/>
    <path d="M8.129,27.528 L8.129,27.528" fill="#F1F2F1"/>
    <path d="M8.24,27.528 C8.137,27.497 8.129,27.49 8.129,27.42 C8.129,26.628 8.376,26.126 8.901,25.515 C9.076,26.136 9.692,26.536 10.185,26.929 C10.223,26.959 9.167,27.435 8.318,27.528" fill="#F1F2F1"/>
    <path d="M13.412,4.456 C14.143,2.661 17.254,-0.386 17.966,1.337 C18.372,2.319 18.419,2.539 18.606,2.852 C19.118,3.705 19.547,4.266 19.408,4.234 C17.957,3.899 16.782,3.589 15.097,3.855 C14.486,3.951 13.968,4.195 13.412,4.456" fill="#F1F2F1"/>
    <path d="M26.193,10.466 C25.843,9.885 25.843,9.885 24.896,8.551 C25.637,8.371 27.258,8.46 26.83,9.081 C26.5,9.561 26.436,10.137 26.193,10.466" fill="#F1F2F1"/>
    <path d="M29.466,19.718 C29.456,19.718 29.446,19.718 29.446,19.729 C27.932,16.56 26.294,13.431 24.307,10.523 C23.246,9.169 22.145,7.807 20.569,7.029 C17.999,5.759 15.634,5.718 12.974,7.154 C11.422,7.992 9.944,9.506 9.034,11.049 C7.97,12.854 7.105,14.021 6.409,16.321 C5.902,17.996 5.648,18.737 5.503,19.565 C4.883,23.112 4.942,24.432 5.268,26.424 C5.464,27.62 6.065,28.576 6.843,29.122 C7.199,29.372 7.977,29.59 8.129,29.616 C9.51,29.848 10.209,29.676 11.548,29.305 C15.297,27.901 18.128,25.063 19.354,21.333 C19.92,18.856 20.043,15.938 18.52,13.762 C18.52,13.752 18.52,13.752 18.53,13.752 C18.921,13.872 19.235,14.21 19.426,14.554 C20.026,15.633 20.209,17.406 20.209,18.648 C20.209,21.787 19.858,22.346 19.117,24.211 C18.458,25.414 17.871,26.333 16.79,27.47 C16.241,28.047 14.905,28.974 14.895,28.984 C12.783,30.358 10.064,31.59 7.501,31.01 C6.952,30.885 6.427,30.621 6.059,30.278 C2.735,27.179 4.187,21.173 5.25,17.379 C5.576,16.215 6.029,15.175 6.373,14.399 C7.749,11.295 9.252,8.704 12.62,6.517 C14.639,5.206 17.527,5.124 19.374,5.84 C23.768,7.543 25.934,12.428 27.932,16.319 C29.033,18.696 29.033,18.696 29.466,19.718" fill="#F1F2F1"/>
    <path d="M21.035,5.071 C20.943,5.02 22.822,4.499 22.822,4.499 C22.822,4.499 23.492,4.326 24.225,4.379 C24.362,4.411 24.713,4.434 24.789,4.682 C24.818,4.78 24.873,4.795 24.422,5.89 C24.281,6.231 24.144,6.709 23.974,7.417 C23.884,7.387 23.026,6.483 22.514,6.099 C22.25,5.886 21.269,5.199 21.035,5.071 z" fill="#F1F2F1"/>
    <path d="M20.206,15.161 C20.227,15.231 20.348,15.595 20.405,15.915 C20.462,16.235 20.535,16.764 20.542,16.878 C20.549,16.992 21.015,16.359 21.33,16.086 C21.756,15.716 21.721,15.766 22.138,15.524 C22.227,15.473 22.155,15.268 21.259,15.183 C20.789,15.104 20.171,15.04 20.206,15.161 z" fill="#F1F2F1"/>
  </g>
</svg>
